<svg xmlns="http://www.w3.org/2000/svg" width="48" height="48">
  <path fill="#37474f" d="M18.125 7 18 15H5v-4.5C5 8.567 6.567 7 8.5 7h9.625z"/>
  <path fill="#00e676" d="m30.009 5.627 1.85-3.117a1.001 1.001 0 0 0-1.72-1.022l-1.945 3.276C26.889 4.276 25.478 4 24 4s-2.889.276-4.195.765L17.86 1.489a1 1 0 1 0-1.72 1.022l1.85 3.117c-3.301 1.92-5.608 5.362-5.94 9.373h23.9c-.332-4.012-2.639-7.454-5.941-9.374z"/>
  <circle cx="19" cy="10" r="1" fill="#fff"/>
  <circle cx="29" cy="10" r="1" fill="#fff"/>
  <path fill="#448aff" d="M39.5 14h-31A3.5 3.5 0 0 1 5 10.5v27A3.5 3.5 0 0 0 8.5 41H43V17.5a3.5 3.5 0 0 0-3.5-3.5z"/>
  <path fill="#37474f" d="M39.5 21H38v25.875h1.5c1.933 0 3.5-1.567 3.5-3.5V17.5a3.5 3.5 0 0 1-3.5 3.5zM33.768 44.061l-7.444-15.819A3.988 3.988 0 0 0 28 25c0-1.858-1.28-3.411-3-3.858V19a1 1 0 0 0-2 0v2.142c-1.72.447-3 2-3 3.858 0 1.337.665 2.515 1.676 3.242l-7.44 15.811c-.424.901-.201 2.025.62 2.588a2.002 2.002 0 0 0 2.954-.79l4.643-9.866c.616-1.309 2.479-1.309 3.095 0l4.643 9.866a1.996 1.996 0 0 0 3.013.747c.778-.574.976-1.662.564-2.537zM24 23c1.103 0 2 .897 2 2s-.897 2-2 2-2-.897-2-2 .897-2 2-2z"/>
</svg>
