<svg xmlns="http://www.w3.org/2000/svg" width="133" height="30" fill="none">
  <path fill="#fff" d="M14.578 0C6.527 0 0 6.367 0 14.22c0 7.854 6.527 14.221 14.578 14.221 8.052 0 14.579-6.366 14.579-14.22C29.157 6.367 22.63 0 14.578 0Zm1.308 23.575h-.013a.102.102 0 0 1-.069-.025.098.098 0 0 1-.034-.075v-3.95c0-.047.033-.087.079-.097 1.989-.456 3.575-2.005 4.044-3.947a.1.1 0 0 1 .1-.076h4.047c.03 0 .058.011.077.033.019.022.029.05.024.08-.57 4.187-3.966 7.5-8.255 8.057Zm8.16-10.449H19.99a.1.1 0 0 1-.098-.076c-.583-2.415-2.76-4.1-5.293-4.1-3.007 0-5.451 2.385-5.451 5.317 0 2.472 1.727 4.595 4.203 5.163.046.01.079.05.079.096v3.95a.1.1 0 0 1-.103.1h-.014c-4.761-.62-8.352-4.622-8.352-9.307 0-5.184 4.325-9.403 9.638-9.403 4.794 0 8.888 3.49 9.538 8.119.007.013.01.028.01.043a.101.101 0 0 1-.102.098ZM37.562 14.242c0-1.319.256-2.576.77-3.772a9.59 9.59 0 0 1 2.098-3.097c.886-.87 1.952-1.563 3.2-2.079a10.311 10.311 0 0 1 3.974-.773 10.038 10.038 0 0 1 7.188 2.957l-2.13 2.338c-1.319-1.5-3.006-2.252-5.06-2.252-1.225 0-2.349.305-3.371.916a6.59 6.59 0 0 0-2.403 2.455 6.674 6.674 0 0 0-.869 3.332c0 1.204.3 2.313.895 3.328a6.565 6.565 0 0 0 2.428 2.404c1.023.59 2.14.885 3.348.885.888 0 1.769-.192 2.643-.575a7.232 7.232 0 0 0 2.238-1.502l2.003 2.325c-.93.874-1.98 1.559-3.152 2.053a9.5 9.5 0 0 1-3.734.743c-1.816 0-3.495-.423-5.035-1.267a9.674 9.674 0 0 1-3.67-3.5c-.907-1.49-1.361-3.129-1.361-4.919Zm19.171 9.351V4.843h3.194v7.61c.313-.23.577-.41.792-.539.216-.128.549-.256.996-.385a5.273 5.273 0 0 1 1.458-.193c.693 0 1.335.103 1.927.31a4.832 4.832 0 0 1 1.598.927c.473.414.844.968 1.11 1.664.266.696.4 1.502.4 2.418v6.938h-3.196V17.17c0-1.894-.85-2.841-2.55-2.841-1.69 0-2.535.93-2.535 2.791v6.472h-3.194v.001ZM70.985 8.986a1.874 1.874 0 0 1-.584-1.397c0-.553.195-1.016.584-1.392.39-.375.871-.563 1.447-.563.566 0 1.04.185 1.42.556.38.372.57.838.57 1.397 0 .562-.19 1.03-.57 1.404-.38.375-.854.563-1.42.563-.576.002-1.059-.188-1.447-.568Zm-.165 14.607V11.56h3.194v12.034H70.82ZM76.894 30V11.56h3.195v.894c.939-.745 2.08-1.118 3.423-1.118 1.813 0 3.355.611 4.625 1.832 1.27 1.22 1.905 2.706 1.905 4.457a6.04 6.04 0 0 1-.867 3.157 6.325 6.325 0 0 1-2.373 2.298 6.595 6.595 0 0 1-3.29.846c-1.344 0-2.486-.371-3.423-1.112V30h-3.195Zm3.196-12.227c.043.864.395 1.607 1.059 2.228a3.343 3.343 0 0 0 2.364.933c.93 0 1.728-.327 2.397-.981.668-.655 1.003-1.43 1.003-2.327 0-.889-.335-1.66-1.003-2.315a3.302 3.302 0 0 0-2.397-.98c-.913 0-1.7.313-2.364.937-.664.626-1.016 1.366-1.059 2.222v.283ZM91.87 30V11.56h3.194v.894c.94-.745 2.08-1.118 3.423-1.118 1.813 0 3.355.611 4.625 1.832 1.27 1.22 1.906 2.706 1.906 4.457 0 1.137-.289 2.19-.868 3.157a6.318 6.318 0 0 1-2.373 2.298 6.595 6.595 0 0 1-3.29.846c-1.343 0-2.486-.371-3.423-1.112V30H91.87Zm3.196-12.227c.043.864.394 1.607 1.058 2.228a3.343 3.343 0 0 0 2.365.933c.93 0 1.728-.327 2.397-.981.668-.655 1.002-1.43 1.002-2.327 0-.889-.334-1.66-1.002-2.315a3.303 3.303 0 0 0-2.397-.98c-.913 0-1.7.313-2.365.937-.664.626-1.016 1.366-1.058 2.222v.283Zm11.184-.08c0-.85.15-1.659.451-2.43.3-.771.72-1.447 1.262-2.028.541-.582 1.215-1.043 2.021-1.386a6.722 6.722 0 0 1 2.643-.513c1.183 0 2.252.288 3.208.866a6.07 6.07 0 0 1 2.219 2.295c.524.953.786 1.994.786 3.123a6 6 0 0 1-.077.989h-9.407c.186.754.58 1.357 1.185 1.808.604.452 1.354.677 2.25.677.591 0 1.157-.11 1.699-.332a3.19 3.19 0 0 0 1.331-.997l2.18 1.688c-.558.771-1.297 1.374-2.219 1.814a6.824 6.824 0 0 1-2.967.658c-1.218 0-2.329-.272-3.335-.816a6.095 6.095 0 0 1-2.371-2.252 6.06 6.06 0 0 1-.859-3.164Zm3.222-1.372h6.149c-.092-.61-.426-1.121-1.002-1.534-.575-.412-1.246-.618-2.016-.618-.736 0-1.381.197-1.939.588a3.182 3.182 0 0 0-1.192 1.564Zm11.355 7.272V11.56h3.194v.895a5.21 5.21 0 0 1 1.909-.881c.681-.157 1.625-.237 2.834-.237v2.993c-.802 0-1.49.045-2.061.136-.57.09-1.029.217-1.376.377a1.97 1.97 0 0 0-.811.66c-.194.28-.326.575-.392.884a5.288 5.288 0 0 0-.101 1.13v6.077h-3.196Zm7.937-17.043c0-.23.046-.45.138-.658.093-.208.216-.388.371-.538.155-.15.34-.27.553-.358a1.755 1.755 0 0 1 1.893.36c.154.15.277.331.367.54a1.607 1.607 0 0 1 0 1.303c-.092.21-.213.39-.368.542a1.767 1.767 0 0 1-2.092.273 1.7 1.7 0 0 1-.631-.615 1.636 1.636 0 0 1-.231-.85Zm.326 0c0 .183.036.356.109.523a1.37 1.37 0 0 0 .745.723c.174.071.357.108.551.108.256 0 .494-.062.709-.183.215-.122.386-.287.509-.495.124-.206.186-.433.186-.678a1.366 1.366 0 0 0-.699-1.197 1.397 1.397 0 0 0-.71-.188c-.256 0-.492.063-.707.188a1.366 1.366 0 0 0-.507.506 1.347 1.347 0 0 0-.186.693Zm.726.956V5.584h.601c.075 0 .14.002.193.003.053.002.112.009.179.017.067.008.123.02.167.035a.666.666 0 0 1 .139.063c.046.027.083.06.112.097a.458.458 0 0 1 .07.14c.017.056.028.12.028.19 0 .31-.163.5-.489.572l.489.81h-.395l-.471-.783h-.294v.78h-.329v-.002Zm.329-1.066h.359c.07 0 .131-.003.181-.01a.52.52 0 0 0 .142-.038.207.207 0 0 0 .104-.089.289.289 0 0 0 .036-.151c0-.11-.038-.185-.115-.222a.841.841 0 0 0-.348-.056h-.359v.566Z"/>
</svg>
