<svg xmlns="http://www.w3.org/2000/svg" width="32" height="32" fill="none">
  <path fill="url(#a)" d="M31.425 8.935 17.798 0v4.996l8.742 5.68-1.03 3.254h-7.712v4.14h7.713l1.029 3.254-8.742 5.68V32l13.627-8.906-2.228-7.08 2.228-7.08v.001Z"/>
  <path fill="url(#b)" d="M5.942 18.07h7.685v-4.14H5.913l-1-3.254 8.714-5.68V0L0 8.935l2.228 7.08L0 23.094 13.656 32v-4.995l-8.742-5.681 1.028-3.254Z"/>
  <mask id="e" width="32" height="32" x="0" y="0" maskUnits="userSpaceOnUse" style="mask-type:alpha">
    <path fill="url(#c)" d="M31.425 8.935 17.798 0v4.996l8.742 5.68-1.03 3.254h-7.712v4.14h7.713l1.029 3.254-8.742 5.68V32l13.627-8.906-2.228-7.08 2.228-7.08v.001Z"/>
    <path fill="url(#d)" d="M5.942 18.07h7.685v-4.14H5.913l-1-3.254 8.714-5.68V0L0 8.935l2.228 7.08L0 23.094 13.656 32v-4.995l-8.742-5.681 1.028-3.254Z"/>
  </mask>
  <g mask="url(#e)">
    <path fill="url(#f)" d="M31.217 0H.017v32h31.2V0Z"/>
  </g>
  <defs>
    <linearGradient id="a" x1="27.017" x2="17.889" y1="34.2" y2="-3.514" gradientUnits="userSpaceOnUse">
      <stop stop-color="#0B46F9"/>
      <stop offset="1" stop-color="#BBFBE0"/>
    </linearGradient>
    <linearGradient id="b" x1="27.017" x2="17.889" y1="34.2" y2="-3.514" gradientUnits="userSpaceOnUse">
      <stop stop-color="#0B46F9"/>
      <stop offset="1" stop-color="#BBFBE0"/>
    </linearGradient>
    <linearGradient id="c" x1="27.017" x2="17.889" y1="34.2" y2="-3.514" gradientUnits="userSpaceOnUse">
      <stop stop-color="#0B46F9"/>
      <stop offset="1" stop-color="#BBFBE0"/>
    </linearGradient>
    <linearGradient id="d" x1="27.017" x2="17.889" y1="34.2" y2="-3.514" gradientUnits="userSpaceOnUse">
      <stop stop-color="#0B46F9"/>
      <stop offset="1" stop-color="#BBFBE0"/>
    </linearGradient>
    <linearGradient id="f" x1="2.017" x2="17.817" y1="7.2" y2="19" gradientUnits="userSpaceOnUse">
      <stop offset=".12" stop-color="#8952FF" stop-opacity=".87"/>
      <stop offset="1" stop-color="#DABDFF" stop-opacity="0"/>
    </linearGradient>
  </defs>
</svg>
