<svg xmlns="http://www.w3.org/2000/svg" width="48" height="48" baseProfile="basic">
  <path fill="#0277bd" d="M22.916 19.6c.339-.493.71-.558 1.012-.558.3 0 .802.064 1.141.558 4.418 6.017 13.579 21.891 14.426 22.755 1.255 1.28 2.977.483 3.976-.969.986-1.43 1.259-2.434 1.259-3.504 0-.729-14.267-27.05-15.706-29.242C27.642 6.532 27.192 6 24.829 6H23.06c-2.359 0-2.7.532-4.081 2.638C17.538 10.834 3.27 37.155 3.27 37.884c0 1.072.272 2.074 1.259 3.504.999 1.452 2.721 2.252 3.976.969.847-.864 9.995-16.737 14.411-22.752V19.6z"/>
</svg>
