<svg xmlns="http://www.w3.org/2000/svg" width="64" height="64" baseProfile="basic">
  <linearGradient id="a" x1="30.982" x2="30.982" y1="21.203" y2="43.514" gradientUnits="userSpaceOnUse">
    <stop offset="0" stop-color="#6dc7ff"/>
    <stop offset="1" stop-color="#e6abff"/>
  </linearGradient>
  <path fill="url(#a)" d="M45.758 32.346 56.964 47h-.85a3.376 3.376 0 0 1-2.68-1.324L44.5 33.992l-8.935 11.684A3.373 3.373 0 0 1 32.886 47h-.85l11.206-14.654L32.271 18h.85c1.051 0 2.041.49 2.68 1.324l8.7 11.377 8.7-11.377A3.371 3.371 0 0 1 55.879 18h.85L45.758 32.346zM28.527 40h.638c-2.348 6.085-9.292 9.631-15.896 7.256C8.215 45.437 5 40.444 5 35.073V29.5c0-7.29 6.273-13.143 13.705-12.443C25.182 17.667 30 23.361 30 29.866V34H7v1.109c0 4.501 2.671 8.705 6.9 10.248 4.807 1.754 9.835-.235 12.389-4.116.5-.76 1.327-1.241 2.238-1.241zM7 32h21v-2.5C28 23.71 23.29 19 17.5 19S7 23.71 7 29.5V32z"/>
  <linearGradient id="b" x1="44.5" x2="44.5" y1="16" y2="49" gradientUnits="userSpaceOnUse">
    <stop offset="0" stop-color="#1a6dff"/>
    <stop offset="1" stop-color="#c822ff"/>
  </linearGradient>
  <path fill="url(#b)" d="M56.729 18 45.758 32.347 56.964 47h-.85a3.376 3.376 0 0 1-2.68-1.324L44.5 33.992l-8.935 11.684A3.373 3.373 0 0 1 32.886 47h-.85l11.206-14.653L32.271 18h.85c1.051 0 2.041.49 2.68 1.324l8.7 11.377 8.7-11.377A3.371 3.371 0 0 1 55.879 18h.85m4.047-2H55.879a5.403 5.403 0 0 0-4.268 2.109L44.5 27.408l-7.111-9.299A5.404 5.404 0 0 0 33.121 16H28.224l2.458 3.215 10.042 13.132-10.277 13.438L27.989 49H32.886a5.406 5.406 0 0 0 4.268-2.109l7.346-9.606 7.346 9.606A5.406 5.406 0 0 0 56.114 49H61.011l-2.458-3.215-10.277-13.439 10.042-13.132L60.776 16z"/>
  <linearGradient id="c" x1="17.54" x2="17.54" y1="15" y2="50" gradientUnits="userSpaceOnUse">
    <stop offset="0" stop-color="#1a6dff"/>
    <stop offset="1" stop-color="#c822ff"/>
  </linearGradient>
  <path fill="url(#c)" d="M17.5 17c.397 0 .8.019 1.205.057C25.182 17.667 30 23.361 30 29.866V34H7v1.109c0 4.501 2.671 8.705 6.9 10.248 1.2.439 2.414.643 3.6.643 3.563 0 6.872-1.847 8.789-4.758.5-.761 1.327-1.242 2.238-1.242h.638c-1.847 4.785-6.535 8-11.665 8-1.394 0-2.82-.237-4.231-.745C8.215 45.437 5 40.444 5 35.073V29.5C5 22.607 10.607 17 17.5 17M7 32h21v-2.5C28 23.71 23.29 19 17.5 19S7 23.71 7 29.5V32m10.5-17a14.399 14.399 0 0 0-10.249 4.251A14.403 14.403 0 0 0 3 29.5v5.573c0 6.348 3.855 12 9.592 14.065 1.592.572 3.243.862 4.908.862 5.951 0 11.389-3.729 13.531-9.28l1.05-2.72h-3.553c-1.565 0-3.026.801-3.91 2.142C23.052 42.522 20.324 44 17.5 44a8.481 8.481 0 0 1-2.915-.521C11.509 42.356 9.362 39.416 9.042 36H32v-6.134c0-7.607-5.758-14.109-13.108-14.8-.462-.044-.93-.066-1.392-.066zM9 30v-.5c0-4.687 3.813-8.5 8.5-8.5s8.5 3.813 8.5 8.5v.5H9z"/>
</svg>
