<svg xmlns="http://www.w3.org/2000/svg" width="48" height="48">
  <path fill="#212121" d="M23.697 37.56h1.18c.84 0 1.631-.392 2.139-1.061l7.485-9.847 7.485 9.847a2.687 2.687 0 0 0 2.139 1.061h1.18L35.756 25l9.121-12h-1.18c-.84 0-1.631.392-2.139 1.061L34.5 23.347l-7.059-9.287A2.686 2.686 0 0 0 25.302 13h-1.18l9.121 12-9.546 12.56z"/>
  <path fill="#212121" d="M24 26v-3c0-6.675-5.945-11.961-12.829-10.852C5.812 13.011 2 17.857 2 23.284v2.858C2 32.695 6.777 37.928 12.868 38c5.092.06 9.389-3.344 10.707-7.999h-1.028a1.61 1.61 0 0 0-1.451.913c-1.739 3.595-5.789 5.862-10.228 4.842C6.776 34.815 4 30.981 4 26.783V26h20zM4 23.71c0-4.708 2.804-8.557 6.924-9.478C16.798 12.92 22 17.352 22 23v1H4v-.29z"/>
</svg>
