<svg xmlns="http://www.w3.org/2000/svg" width="100" height="100" fill="none">
  <circle cx="50" cy="50" r="50" fill="#727CF5"/>
  <g fill="#fff" clip-path="url(#a)">
    <path d="M33.64 46.406c.585-3.553 2.179-6.01 4.634-8.463 3.147-3.15 7.326-4.68 11.765-4.68 2.92 0 5.79.868 8.299 2.313l3.015 1.794 4.64-8.025-3.01-1.725c-3.92-2.262-8.396-3.86-12.944-3.86-13.314 0-24.326 11.989-25.776 22.646H18l10.938 17.803 10.755-17.803H33.64ZM71.061 35.71l-10.754 17.8h6.047c-1.533 7.993-8.315 13.32-16.315 13.32-2.908 0-5.77-.796-8.275-2.233l-3.015-1.748-4.625 8.048 3.016 1.73a25.933 25.933 0 0 0 12.898 3.428c6.923 0 13.433-2.636 18.335-7.544 4.097-4.1 6.668-8.784 7.392-15H82l-10.939-17.8Z"/>
  </g>
</svg>
