<svg xmlns="http://www.w3.org/2000/svg" width="48" height="48">
  <path fill="#00bfa5" d="M24 44C12.955 44 4 35.045 4 24 4 12.954 12.955 4 24 4c11.046 0 20 8.954 20 20 0 11.045-8.954 20-20 20z"/>
  <path fill="#fff" d="M27.5 27a1.5 1.5 0 1 0 0 3h3.187c-1.685 1.872-4.113 3-6.687 3-4.962 0-9-4.038-9-9s4.038-9 9-9c3.136 0 5.998 1.603 7.656 4.288a1.5 1.5 0 1 0 2.552-1.576C32 14.135 28.184 12 24 12c-6.617 0-12 5.383-12 12s5.383 12 12 12c2.991 0 5.832-1.144 8-3.088V34.5a1.5 1.5 0 1 0 3 0V27h-7.5z"/>
</svg>
