<svg xmlns="http://www.w3.org/2000/svg" width="48" height="48" fill="none">
  <path fill="#000" d="M7.532 20.983c-1.625.66-5.924 3.626-6.752 4.505-.86.88-1.114-.494-.223-2.774.7-1.84 2.484-4.341 5.478-6.484 1.751-1.236 5.605-3.022 7.961-4.066.478-.22 6.656-2.473 12.165-3.599.478-.11-.573.687-.732 1.126C24.6 11.78 8.073 20.736 8.073 20.736l-.541.247ZM30.81 46.176c.287 1.484.033 1.594-1.75 1.786-1.784.192-3.09-.385-3.567-.77-.478-.384-.574-1.236-.096-2.005.287-.494.573-.66.733-1.264.159-.577.286-.714.414-.934.127-.192.159-.384.19-1.73.032-1.347 0-3.874.16-4.946.16-1.099 5.669.495 5.669.495s-1.306 2.802-1.656 3.489c-.35.687-.319 2.005-.319 2.28 0 .275-.127.824-.223.852-.095.027.319.741.127 1.154-.127.384.287 1.373.319 1.593ZM32.913 4.17c-.192-1.045 0-3.105.254-3.435.797-.934 5-1.044 5.892.055.382.494.35 1.648.287 2.39-.064.742-.287 2.335-.319 2.857-.032.385-4.65.99-5.669-.055-.286-.274-.445-1.813-.445-1.813ZM42.275 43.511c1.942 1.21 3.44 1.43 4.426 1.869.987.44.733 1.291-.923 1.538-1.338.22-3.44-.22-4.84-.22-1.402 0-4.523.138-5.35-.357-.956-.577-.542-1.648-.542-1.648.255-.604.891-1.95.7-3.05-.19-1.099-.446-1.703-.923-2.72-.478-1.016-.828-3.516-.382-3.653.446-.138.318 0 .891.11.574.11 1.21.274 2.453.274 1.242 0 2.61-.165 3.089-.247.477-.082.86-.165.7.687-.16.851-.637 2.445-.669 3.681-.031 1.236-.031 2.665.064 2.912.096.248.796.522 1.306.824Z"/>
  <path fill="#88CE02" d="M35.46 6.917c-3.502 2.61-10.286 3.324-20.349 6.676-2.58.851-9.458 3.407-11.114 6.072 5.573-2.775 7.643 1.044 8.089 4.972.414 3.681 2.547 5.605 8.025 5.495 5.637-.11 7.356 2.72 8.917 6.044 3.025-12.72 7.866-15.193 10.986-17.363 6.624-4.643-1.528-12.83-4.553-11.896Z"/>
  <path fill="#88CE02" d="M35.46 6.917c-8.407 2.528-16.719 3.16-26.495 8.352-2.325 1.236-7.23 4.038-8.185 9.396 3.567-3.407 11.815-7.693 21.91-10.412 5.095-1.374 8.821-2.28 13.343-3.792-.318-1.758-.318-2.445-.573-3.544Z"/>
  <path fill="#000" d="M46.192 21.972s-.605 1.786-1.816 2.363c0 0-.891.274-2.674-.577-.51-.247-.892-1.1-.86-1.374.032-.66.51-.962.51-.962s.509-.741 1.114-.714c.605.027 1.624.11 1.943-.137.286-.275 1.846.494 1.783 1.4ZM33.2 4.691s-.128 1.402-.35 2.28c-.033.166-.988.248-1.689.495 1.338 3.297 9.395 3.27 10.446 1.649-.51-.303-1.529-.77-2.007-.934-.477-.165-.446-.138-.477-.907-.032-.77-.096-2.198-.16-2.583-.063-.384-5-.384-5.764 0Z"/>
  <path fill="#EFEFEF" d="M33.517 4.691s0 .797-.095 1.566a5.647 5.647 0 0 1-.127.852c-.032.165 1.082.824 1.4 2.28 1.53 2.94 5.064 1.484 6.53.083a13.065 13.065 0 0 0-2.294-1.044c-.477-.165-.255-.522-.286-1.292-.032-.769-.16-1.895-.223-2.307-.064-.412-4.14-.522-4.905-.138Z"/>
  <path fill="#000" d="M33.2 4.691s-.032.495-.128 1.072c.414.357.956.851 1.37 1.154.286.22.987.192 1.624.192.573 0 1.082.055 1.305-.055.51-.22 1.242-.769 1.657-1.181a20.463 20.463 0 0 0-.096-1.182c-.032-.384-4.968-.384-5.733 0Z"/>
  <path fill="#000" d="M36.097 6.78a8.15 8.15 0 0 1-1.178-.083c-.16-.027-.318-.11-.446-.165-.223-.137-.446-.302-.7-.467-.51-.33-.542-.522-.542-.604.223-1.731-.064-3.187-.064-3.187s-.222-.742.988-.934c1.21-.193 1.942-.22 1.942-.22s.765 0 1.943.22c1.21.192.987.934.987.934s-.287 1.456-.063 3.187c0 .082-.032.275-.542.604-.446.275-.796.577-1.146.632-.35.055-.797.083-1.179.083Z"/>
  <path fill="#000" d="M36.097.406c-2.102 0-2.516.494-3.121 1.044-.127.137-.032.961.191 2.72h.287s-.191-.495-.16-1.072c.032-.577.16-.55.064-.687-.127-.165-.382-.44.191-.714.573-.275 1.465.22 2.548.247 1.083-.027 2.006-.522 2.58-.247.572.275.318.55.19.714-.127.165.032.11.064.687.032.577-.16 1.072-.16 1.072h.288c.19-1.759.318-2.528.222-2.665C38.74.9 38.2.433 36.097.405ZM46.192 22.054s-.605 1.676-1.783 2.253c-.255-.11-.223-.274-.446-.522-.064-.082-.287-.137-.382-.22-.096-.082-.064-.22-.223-.33-.127-.11-.223-.027-.35-.11-.128-.109-.16-.246-.255-.329-.064-.055-.319-.082-.382-.137-.16-.138-1.56-.385-1.497-.66.127-.412.382-.714.382-.714s.605-.77 1.21-.742c.605.028 1.179.138 1.497-.11.35-.274 2.325.742 2.23 1.621Z"/>
  <path fill="#000" d="M42.052 9.911s2.006-.412 3.376.714c1.37 1.154 1.274 2.583.86 3.462.35.357.987 1.346.51 2.527 2.101 1.539 1.177 3.902-.701 5.468 0 0-.446-1.429-2.23-1.511.064-.55-1.655-.99-.86-2.418-1.21-.247-1.178-.962-1.369-1.84-.159-.88.414-6.402.414-6.402Z"/>
  <path fill="#EFEFEF" d="M41.32 10.68s2.325-1.016 3.694.138c1.37 1.154.987 2.418.573 3.297.35.357 1.178 1.374.669 2.582-.096.275-.796.275-1.306.99 1.274-.633 2.07-.468 2.357.329.446 1.236-.542 2.72-1.401 3.544 0-.027-.032-.055-.032-.082-.128.412-.287 1.208-1.242 2.088-.478.44-.86.384-1.402.274-.636-.137-.86-.384-1.751-.796-.51-.248-.223-.55-.223-.797 0-.055.064-.138.16-.247.063-.138.254-.357.54-.605 0 0 .415-.494 1.02-.467.605.028 1.242-.082 1.401-.22 0-.961-1.274-.989-.828-2.637.032-.083.191-.22.7-.275-.764-.137-1.114-.165-1.655-.604-.383-.302-.67-.687-.765-1.181-.19-.852-.51-5.33-.51-5.33Z"/>
  <path fill="#000" d="M34.6 8.95c-.19-.22-1.178-1.319-3.057-1.758-.541-.138-.892.247-1.433.522-.16-.083-.86-.357-1.242-.165-.382.192-.637.385-1.02.522-.19-.083-.7-.083-1.114.055-.414.11-1.05.357-1.656 1.071-.382 1.182 6.752.302 6.752.302l2.77-.549Z"/>
  <path fill="#88CE02" d="M34.664 8.95c-1.02-.303-.86-1.32-3.12-1.484-.447-.027-.733.275-1.052.467.16.138.319.357.414.577-.286-.275-.796-.632-1.306-.714-.477-.083-.796.22-1.305.44.095.082.19.219.318.384-.446-.247-.764-.33-1.37-.137-.413.11-1.21.412-1.814 1.153-.382 1.182 6.432-.137 6.432-.137l2.803-.55Z"/>
  <path fill="#000" d="M40.651 9.39s0-.303-.032-.577c0-.055-.255-.193-.255-.248l-.063-.055s.51-.247.891-.11c.414.11.637.577.637.577.733-.22.796.028 1.147.358.764-.138.86.11 1.337.714 0 0-.573-.083-1.688.082-1.082.137-1.974-.77-1.974-.742Z"/>
  <path fill="#88CE02" d="M40.524 9.252s.191-.137.127-.165c.35-.165.828-.357 1.051.165.733-.22.828.082 1.179.412.891-.357.955.082 1.019.274-.287 0-.7.028-1.274.082-1.083.138-2.134-.796-2.102-.768Z"/>
  <path fill="#000" d="M29.697 8.565s1.815.55 3.343.467c1.529-.11 4.14-.22 5.541.495 0 0 1.433-.44 2.771-.138 1.338.302 3.79 2.28 3.057 4.368-.063.138-.477.357-.955.495 0 0 .255.934-.191 1.703-.446.742-1.433 2.17-1.465 4.149-.032.33-.095 1.016-.16 1.346-2.483-.082-6.305-.88-10.062-.824.031-.357.063-.577.095-.934h.095c-.19-.907-.254-1.374-.445-2.06-1.21-.66-2.485-1.43-3.567-2.886-1.051-1.456 1.943-6.181 1.943-6.181ZM41.988 23.4s1.975 6.1-.35 8.655c0 0 .35 1.181-.446 2.445-.127.55-.286 1.044-.382 1.593-.414 2.28-1.115 3.242-1.306 6.896l-1.91-.027s-.224-2.638-.892-4.039c-.382-.796-1.88-1.868-1.815-2.94.063-.823.254-1.51 1.879-2.61.127-1.593-1.72-3.104-1.433-9.038l6.655-.934Z"/>
  <path fill="#EFEFEF" d="M41.415 23.153c.51 2.803 1.688 6.951-.446 8.984.096.385.16.934.032 1.566-.064.33-.191.687-.35 1.071-.319.66-.446 1.621-.542 2.198-.414 2.28-.414 2.39-.605 6.044l-1.91-.027s-.224-2.637-.892-4.038c-.382-.797-1.178-1.484-1.242-2.556-.064-.824.605-2.472 2.197-2.417-.095-3.324-1.879-2.665-2.356-9.588l6.114-1.237ZM29.697 8.565s.7.192 1.464.247c.765.055 1.593 0 2.325-.027 1.529-.11 3.694-.248 5.127.467 0 0 .796-.22 1.656-.165.382.027.765.302 1.21.412 1.402.302 2.74 2.308 2.134 4.121-.064.137-.51 0-1.02.137.096.385.16 1.264-.35 2.198-.54.935-1.241 2.143-1.114 4.451-3.344-.137-4.84-.33-8.153-.467-.286-1.017-.477-2.033-.51-2.555.447-.192.701-.357 1.052-.687-.956.138-1.338.083-1.911-.192s-1.592-1.154-2.102-1.731c-.063-.055-.414.852-1.21.88-.287-.358.924-1.375.7-1.76-.795-1.4.701-5.33.701-5.33Z"/>
  <path fill="#000" d="M41.67 20.873s.064.99.064 1.237c0 .274.255 1.099.286 1.483-.35.522-1.878 1.704-4.649 2.143-2.739.495-6.369-3.214-6.369-3.214.096-.357.414-1.401.637-1.95a.791.791 0 0 0 .095-.248c.287-.357 9.936.55 9.936.55Z"/>
  <path fill="#EFEFEF" d="M40.97 20.956c0 .686.126 1.181.222 1.62.16.797.414 1.32.414 1.841 0 1.594-2.42 1.319-4.459 1.374-2.738.494-5.063-3.214-5.063-3.214.191-.632.319-1.347.605-1.951.032-.33.096-.742.127-.934 3.886 0 6.624.192 8.217.33.063.302 0 .824-.064.934Z"/>
  <path fill="#000" d="M37.912 24.5s-1.688-3.242-6.751-2.28c-1.21 2.939-2.835 6.318-1.784 9.972-1.05 1.236-2.26 1.923-2.26 4.203 0 2.28.127 2.665.127 2.665l3.726.165s1.21-1.346 1.687-2.802c.128-.412.255-1.154.16-2.005.127-.165.668-.55.732-1.292 0 0 1.815-.824 2.866-2.83.988-1.813.733-3.379 1.497-5.796Z"/>
  <path fill="#EFEFEF" d="M37.912 24.5c-.095-.302-1.369-3.27-6.082-2.39-2.77 6.373-1.752 9.01-1.338 10.165-1.879 2.06-2.738 2.5-2.356 6.676h2.484c1.146-1.566 1.401-2.143 1.465-4.204 0-.082-.35.165-.605.44.19-.852.732-1.017 1.146-1.539.191-.22.35-.55.35-.989 2.23-1.291 3.058-2.912 3.535-4.588.383-1.154.828-3.05 1.401-3.571Z"/>
  <path fill="#000" d="M30.046 20.077s.86.027 1.625.247c.732.22.732.357 1.019.632.286.275.987.687.86 1.099-.064.22-.223.274-.446.467-.096.082-.797.742-.956.824-.095.055-.223.137-.318.192l-.478.275c-.318.137-.541.22-.892.192 0 0-.796-.027-1.305-.494 0 0-.064-.22.063-.33 0 0-.668-.494-.86-.824-.19-.33-.19-.797-.063-1.044.064-.247 1.305-.934 1.751-1.236ZM30.842 46.808l-.095.687s-.287.302-2.42.275c-2.166-.028-2.74-.605-2.93-.907l-.127-.714s.413-.522.51-.522c.7.055 3.088.88 4.744 1.099.159 0 .19.055.318.082ZM35.46 45.407c0 .302-.031.302-.031.605.382.247 1.337.384 3.152.356 2.644-.054 5.096.688 8.09.248l.031-.495-.286-.027-10.605-.742-.35.055Z"/>
  <path fill="#000" d="M37.785 46.368h.796c1.72-.054 3.344.275 5.095.358.924-.028 2.07-.22 1.975-.797l-9.044-.66c-.542.523-.128.962 1.178 1.1ZM27.404 34.802c.286.165 2.229 1.154 5.382 1.017-.064.522-.032 1.538-1.434 3.324-.7.88-1.305 2.418-1.433 4.368.032.44.319.825-.063 1.401.127.358.637 1.072.891 1.511.255.44.383.935-1.305.962-1.72.028-4.49-.137-4.108-1.291.19-.605.732-1.236.796-1.484.064-.247.064-.989.605-1.483.478-1.374.318-2.693.223-3.929-.16-1.291-.191-3.352.446-4.396ZM30.365 12.412c2.26-2.61.35-4.698-3.28-4.066-1.465.247-2.93 1.126-3.026 2.72-.477.054-1.56.11-2.102 1.813-.413 1.319-.636 1.566-1.369 2.225-.478.467.032 1.429.382 2.116 1.178 2.362 4.809 2.582 7.261 4.368.828-.193 1.688-.99 1.943-1.511-2.07-2.116-1.625-2.94-2.453-4.039.892-.274 2.93-1.346 2.644-3.626Z"/>
  <path fill="#EFEFEF" d="M29.919 12.246c.127-.165.35-.522.446-.66.032-.027.382.495.414.468.86-1.209 1.082-2.967.095-3.132a6.385 6.385 0 0 1-.987-.22c-.637-.192-1.21-.192-2.23-.027-1.4.22-2.802 1.099-2.802 2.362 0 .083.987.33 1.274 1.347-.478-.577-1.306-1.21-2.293-.66-1.05.577-.51 1.896-1.91 3.27-.478.466-.414 1.016.095 2.115.828 1.73 4.745 2.665 6.879 4.313.51-.192.86-.632 1.114-.961-1.433-1.291-2.006-2.5-2.42-3.38-.51-1.016-1.083-1.593-2.198-2.362.574.192 1.02.384 1.274.549.287.165.7.192 1.083.082 1.37-.411 2.102-2.06 2.166-3.104Z"/>
  <path fill="#000" d="M43.772 12.686c-.095 1.044-.987.522-1.465.33-.955-.357-1.91-.604-3.025-.604-1.114 0-2.548.082-3.79.357-1.72.412-2.229.384-2.993.055-.764-.357-2.102-1.237-2.102-1.237s-.031.275.287.632c.414.44 1.338.99 2.58 1.346.604.165 1.082.055 1.624-.054 2.834-.605 5.827-.715 8.343.604.127.055.573-.11.764-.357.255-.357-.223-1.072-.223-1.072Z"/>
  <path fill="#001423" d="M29.282 23.153c.255.138.573.22.924.467 0 0-.287 0-.414-.11a4.426 4.426 0 0 1-.51-.357Z"/>
  <path fill="#EFEFEF" d="M38.486 1.367c-.096-.247-.797-.687-2.42-.687-1.752 0-2.262.467-2.293.715 0 .082-.128.961-.16 1.318 0 0 0 .44.032 1.1.032.439.16.686.223 1.263.064.604.255.989.605 1.483.16.083.287.165.446.193.637.11 1.752.137 2.357 0 .35-.083.796-.605.891-1.072.127-.577.255-.989.287-1.346.063-.357.095-1.154.127-1.374.096-.604-.064-1.538-.095-1.593Z"/>
  <path fill="#000" d="M35.142 35.324s1.688.632 5.86.083c0 0-1.178 5.11-.637 7.665 0 0 .541.659 4.554 1.923 0 0 1.783.384 1.72 1.154 0 0 .063.165-2.102.11-2.165-.056-4.204-.385-5.637-.385-1.433 0-2.962.055-3.216-.302-.287-.33.064-1.182.477-1.676.447-.522.319-.907.287-1.84-.096-2.446-2.261-4.973-1.306-6.732Z"/>
  <path fill="#88CE02" d="M34.791 35.791c-.223.275.032 1.32.35 2.336.319 1.016 1.02 1.62 1.179 3.296.16 1.649.191 1.869-.35 2.83-.542.962-.701 1.84 1.178 1.868 1.879.028 2.898-.027 4.809.22 1.91.247 2.58.33 3.63.192 1.051-.137 1.274-.44.828-.714-.446-.275-2.293-.577-3.089-1.126-.764-.495-2.93-1.32-2.962-1.539-.095-.742-.127-3.434.032-4.313.16-.88.382-2.143.446-2.473.064-.33.382-.66-.16-.55-.54.11-2.579.358-4.107.276-1.529-.083-1.688-.385-1.784-.303Z"/>
  <path fill="#000" d="M35.875 44.28c.54.22 1.337.385 1.942.385 0 0-.223.907.127 1.456.35.55-2.547.22-2.547.22l-.127-1.95.605-.11ZM44.313 46.644c.51-.138.86-.632.446-1.1-.446-.466-.828-.549-.255-.576.573-.028 2.675 1.071 2.675 1.071l-1.083.852-1.783-.247ZM34.696 36.862c.732.22 1.846.275 2.802.248.955-.028 2.388-.138 3.312-.412.923-.275.541.302.541.302l-.51.412s-1.21.412-3.184.385c-2.324-.028-3.025-.247-3.025-.247l.064-.688ZM34.76 38.236c.732.22 1.847.275 2.802.247.956-.027 2.23-.027 3.153-.33.382-.109.16.358.16.358l-.16.247s-1.242.384-3.185.356c-2.324-.027-2.738-.192-2.738-.192l-.032-.686Z" opacity=".3"/>
  <path fill="#000" d="M32.658 18.978c0 .192 2.484 1.264 3.853 1.484 1.37.22 4.236 0 4.682-.083l-.064.385s-3.407.44-6.019-.165c-2.611-.604-2.324-.742-2.324-.742l-.128-.879Z"/>
  <path fill="#EFEFEF" d="M27.34 42.412c.382.165 1.751.467 2.643.302.127-.027 0-1.895.35-2.747.51-1.182 1.338-2.143 1.72-4.23-1.338-.11-2.866-.413-3.662-.633-1.02 2.693-.669 5-1.051 7.308ZM29.474 44.143c.222.055.382.275.445.137.128-.247-.223-.714-.255-1.044v-.027c-.286-.22-2.229-.247-2.101-.138-.223.358-.573.303-.7 1.017-.064.357.445.055.923.027-.86.495-1.847 1.127-2.007 1.676-.19.77.128.99 1.083 1.402.828.164 1.816.192 2.58.164.86-.137 1.019-.494.764-.989-.382-.742-.637-1.703-.732-2.225Z"/>
  <path fill="#000" d="M29.824 8.455c1.05.522 2.515.384 3.057.357.127 0 1.401-.192 1.465-.165.127.028.127.11.127.11s-.478.22-1.56.274c-1.02.055-2.23 0-2.898-.274-.796-.302-.191-.302-.191-.302ZM40.651 8.978c.191.11 1.433.522 1.975 1.016.477.44.223.412.127.302-.127-.137-1.114-.714-1.497-.851-.382-.138-.86-.385-.86-.44 0-.055.255-.027.255-.027Z"/>
  <path fill="#EFEFEF" d="M29.664 20.379c.924-.055 1.88.137 2.484.686.319.275.828.577.765.852 0 .082-.192.302-.35.467-.096.11-.383.357-.478.44-.128.082-.574.384-.67.44-.095.054-.222.192-.318.22-.318.137-.668.027-.987-.11-.318-.138.064-.166-.286-.385-.86-.522-1.338-.88-.988-1.896.032-.192.383-.412.828-.714Z"/>
  <path fill="#000" d="M21.544 14.087c-2.866.99-10.159 4.122-12.229 5.083 1.72.934 2.516 3.187 2.771 5.467.032.22.064.412.096.632.031.192.063.33.095.412 0 .028 0 .083.032.11 1.879-4.423 8.598-9.094 8.853-9.45.127-.166-.16-.88.287-1.567.573-.879 1.688-1.264.095-.687ZM28.358 34.83c1.465-2.528 1.497-4.945 1.465-7.775 0-1.182.987-2.857.478-2.39-1.91 1.84-6.72 5.302-10.19 5.494 4.872-.137 6.782 1.978 8.247 4.67Z" opacity=".4"/>
  <path fill="#000" d="M6.513 21.505c1.815-1.127 11.21-5.44 13.47-6.044 2.261-.632 1.56-1.374 1.56-1.374s-9.17 3.407-14.648 6.346"/>
  <path fill="#000" d="M33.263 13.565c-.732-.247-1.305.495-1.114 1.21.191.714 1.91 1.51 1.815 4.12-.064 2.143-.605 3.022-.605 3.022l-1.21-1.318s-.191-2.968-.605-3.407c-.414-.44-1.72-1.236-2.23-1.648-.509-.413.574-.962.51-1.731-.064-.742.541-2.226.541-2.226l2.898 1.978ZM37.69 25.269c-.064 2.06.477 5.11.7 6.566.223 1.456.51 1.566 0 2.225-.51.632-1.178 1.676-1.178 1.676l-2.197-.165s1.751-1.923 1.847-2.28c.095-.357-.892-3.077-.892-3.077l1.72-4.945ZM33.454 6.037c.446.852.987 1.236 1.847 1.484.51.165 2.516.384 3.312-.385.35-.357.127-1.319.127-1.319l-1.815 1.264-2.452-.384-.287-.632-.732-.028Z" opacity=".4"/>
  <path fill="#88CE02" d="M33.645 7.933c.828.467 2.898.907 3.471.99.574.109 1.497-.523 1.943-.688.478-.192 1.306-.302 2.261.44.096.082-.223.44-.223.44-.032-.028-.223-.028-.477-.138-.255-.11-.478-.192-.86-.165-1.593.165-1.847.632-3.248.357-1.402-.275-1.752-.494-3.121-.44"/>
  <path stroke="#000" stroke-linejoin="round" stroke-width="1.586" d="M33.645 7.933c.828.467 2.898.907 3.471.99.574.109 1.497-.523 1.943-.688.478-.192 1.306-.302 2.261.44.096.082-.223.44-.223.44-.032-.028-.223-.028-.477-.138-.255-.11-.478-.192-.86-.165-1.593.165-1.847.632-3.248.357-1.402-.275-1.752-.494-3.121-.44"/>
  <path fill="#88CE02" d="M33.358 8.016c1.051.384 3.09.796 3.663.906.573.11 1.496-.384 1.942-.632.796-.44 1.815-.082 2.293.385.318.302.446.495.446.577 0 .11-.382 0-.382 0-.223-.082-.478-.11-.669-.22-.255-.11-.51-.275-.892-.247-1.592.165-1.91.632-3.28.357-1.369-.275-1.72-.522-3.184-.44"/>
  <path fill="#000" d="M28.422 33.676c-.064-.055.064-.11 0-.11-.414 0-.987-.275-1.306-.66-1.369-1.703-3.375-2.83-7.006-2.747-5.445.11-7.61-1.813-8.025-5.494-.223-2.006-.86-3.957-2.165-5.056l-.765.413c1.465 1.098 1.943 2.884 2.261 5.33.51 3.68 3.95 5.384 7.962 5.44 4.172.054 5.668.796 7.229 2.61.51.576 1.082.768 1.528.85l.287-.576Z"/>
  <path fill="#000" d="M43.198 16.01c.096.412.35 1.21.86 1.594.223.192.255.247.064.247s-1.592-.055-1.592-.055l-.383-.577 1.051-1.209Z" opacity=".4"/>
</svg>
