<svg xmlns="http://www.w3.org/2000/svg" width="242" height="45" fill="none">
  <g fill="#fff">
    <path fill-opacity=".3" d="M203.767 34.236c-1.681 0-3.273-.315-4.779-.945-1.47-.63-2.678-1.646-3.623-3.046-.91-1.435-1.365-3.29-1.365-5.566V7.456h4.201v16.12c0 2.66.577 4.499 1.732 5.514 1.156.98 2.783 1.47 4.884 1.47.98 0 1.943-.157 2.888-.473a7.287 7.287 0 0 0 2.52-1.575c.77-.735 1.365-1.663 1.786-2.783.455-1.12.682-2.45.682-3.99V7.456h4.201v26.255h-3.676l-.262-3.991c-.91 1.575-2.153 2.73-3.728 3.466-1.541.7-3.361 1.05-5.461 1.05zM231.542 34.236c-2.556 0-4.919-.543-7.089-1.628-2.135-1.085-3.781-2.625-4.936-4.62l3.571-2.574c.77 1.61 1.89 2.87 3.36 3.78 1.506.911 3.308 1.366 5.409 1.366 1.855 0 3.308-.35 4.358-1.05 1.05-.735 1.575-1.68 1.575-2.836 0-.735-.245-1.4-.735-1.995-.455-.63-1.348-1.085-2.678-1.365L228.076 22c-2.555-.525-4.393-1.4-5.513-2.625-1.085-1.225-1.628-2.748-1.628-4.568 0-1.436.402-2.748 1.208-3.939.84-1.19 2.012-2.135 3.518-2.835 1.54-.735 3.343-1.103 5.408-1.103 2.591 0 4.778.508 6.564 1.523a9.507 9.507 0 0 1 3.99 4.306l-3.518 2.31c-.595-1.54-1.557-2.66-2.888-3.36-1.33-.736-2.713-1.103-4.148-1.103-1.26 0-2.345.175-3.255.525-.876.35-1.558.84-2.048 1.47a3.28 3.28 0 0 0-.683 2.048c0 .77.263 1.488.788 2.153.525.63 1.505 1.085 2.94 1.365l6.564 1.365c2.45.49 4.166 1.296 5.146 2.416.98 1.12 1.47 2.485 1.47 4.095 0 1.646-.438 3.098-1.313 4.359-.875 1.225-2.1 2.17-3.675 2.835-1.576.665-3.396.998-5.461.998z"/>
    <path fill-rule="evenodd" d="M115.452 0v7.456h9.556v3.623h-9.556v15.385c0 1.296.367 2.258 1.102 2.888s1.681.945 2.836.945c1.015 0 1.89-.175 2.625-.525.735-.35 1.4-.822 1.996-1.417l1.47 3.518c-.805.735-1.768 1.312-2.888 1.733-1.085.42-2.346.63-3.781.63-1.33 0-2.573-.228-3.728-.683a6.295 6.295 0 0 1-2.783-2.258c-.665-1.05-1.015-2.415-1.05-4.096V11.08H106V7.456h5.251v-6.3zm39.019 7.456-12.34 30.665c-.665 1.716-1.4 3.063-2.205 4.043-.77 1.016-1.645 1.733-2.625 2.153-.946.456-2.048.683-3.309.683-1.19 0-2.292-.175-3.308-.525a9.224 9.224 0 0 1-2.625-1.313l1.155-3.675c.7.63 1.435 1.085 2.206 1.365.805.315 1.592.472 2.362.472.911 0 1.768-.28 2.573-.84.806-.56 1.541-1.698 2.206-3.413l1.365-3.413-2.625-6.248-8.349-19.954h4.778l6.564 17.118 1.627 4.673 1.891-5.198 6.143-16.593zm3.858 0v37.282h4.2V29.605c.703 1.19 1.683 2.208 2.941 3.055 1.645 1.05 3.553 1.576 5.723 1.576 2.171 0 4.166-.543 5.986-1.628 1.821-1.085 3.273-2.643 4.359-4.673 1.12-2.066 1.68-4.516 1.68-7.352 0-2.87-.543-5.32-1.628-7.35s-2.538-3.589-4.358-4.674c-1.785-1.085-3.746-1.628-5.881-1.628-1.505 0-2.906.263-4.201.788-1.295.525-2.398 1.26-3.308 2.205a8.776 8.776 0 0 0-1.574 2.137l-.264-4.605zm18.483 20.374c-1.435 1.82-3.448 2.73-6.039 2.73-1.645 0-3.098-.402-4.358-1.208-1.225-.84-2.188-2.012-2.888-3.518-.665-1.505-.998-3.255-.998-5.25 0-2.03.35-3.781 1.051-5.251.7-1.506 1.68-2.66 2.94-3.466 1.26-.84 2.73-1.26 4.411-1.26 2.555 0 4.533.91 5.933 2.73 1.435 1.82 2.153 4.236 2.153 7.246s-.735 5.426-2.205 7.247zM8.926 24.784V.368H0v25.571c0 2.94.63 5.059 1.89 6.354 1.26 1.295 3.29 1.943 6.091 1.943.98 0 1.978-.123 2.993-.368 1.016-.245 1.838-.56 2.468-.945l.578-5.356c-.49.14-.91.245-1.26.315s-.788.105-1.313.105c-.91 0-1.558-.245-1.943-.735s-.578-1.313-.578-2.468zm28.1-16.225c-2.065-1.085-4.48-1.628-7.246-1.628-2.695 0-5.093.543-7.193 1.628-2.1 1.05-3.746 2.608-4.936 4.673-1.156 2.03-1.733 4.481-1.733 7.351s.577 5.339 1.733 7.404a11.983 11.983 0 0 0 4.936 4.673c2.1 1.05 4.498 1.576 7.193 1.576 2.766 0 5.181-.525 7.246-1.576 2.1-1.085 3.729-2.642 4.884-4.673 1.19-2.065 1.785-4.533 1.785-7.404 0-2.87-.595-5.32-1.785-7.35-1.155-2.066-2.783-3.624-4.883-4.674zm-9.871 5.46c.735-.49 1.61-.734 2.625-.734 1.05 0 1.943.245 2.678.735.735.49 1.295 1.278 1.68 2.363.386 1.085.578 2.485.578 4.2s-.193 3.116-.578 4.201c-.385 1.05-.945 1.838-1.68 2.363-.735.49-1.628.735-2.678.735-1.015 0-1.89-.245-2.625-.735-.735-.525-1.295-1.313-1.68-2.363-.386-1.085-.578-2.485-.578-4.2s.193-3.116.578-4.201c.385-1.085.945-1.873 1.68-2.363zM73.772.42l.735 5.986c-.21-.07-.42-.105-.63-.105a3.825 3.825 0 0 0-.63-.052c-1.54 0-2.696.385-3.466 1.155-.43.43-.735.927-.913 1.49.974.587 1.768 1.298 2.384 2.133 1.015 1.295 1.522 2.905 1.522 4.83 0 1.891-.507 3.501-1.523 4.831-.98 1.33-2.415 2.346-4.305 3.046-1.89.665-4.166.998-6.826.998-1.837 0-3.48-.15-4.929-.45a3.084 3.084 0 0 0-.9.397c-.56.385-.84.858-.84 1.418 0 .595.245 1.05.735 1.365.49.28 1.225.42 2.205.42h8.35c3.045 0 5.373.648 6.983 1.943 1.645 1.26 2.468 3.08 2.468 5.46 0 2.171-.595 3.974-1.785 5.41-1.19 1.435-2.87 2.502-5.041 3.202C65.23 44.632 62.693 45 59.752 45c-4.76 0-8.191-.595-10.292-1.785-2.1-1.19-3.15-2.8-3.15-4.831 0-1.47.595-2.66 1.785-3.57.748-.573 1.807-.979 3.178-1.219-.91-.328-1.654-.762-2.233-1.302-1.05-.98-1.575-2.31-1.575-3.99s.665-3.046 1.995-4.096a7.37 7.37 0 0 1 2.16-1.166 9.396 9.396 0 0 1-1.004-.62c-2.136-1.54-3.204-3.728-3.204-6.563 0-1.926.49-3.536 1.47-4.831 1.016-1.33 2.469-2.346 4.359-3.046s4.183-1.05 6.879-1.05c2.066 0 3.9.211 5.502.634.118-.917.35-1.81.694-2.682.525-1.33 1.33-2.415 2.415-3.255 1.12-.84 2.52-1.26 4.2-1.26h.368c.175 0 .333.017.473.052zM59.805 39.224c1.68 0 3.063-.122 4.148-.367 1.12-.21 1.96-.526 2.52-.946.56-.385.84-.84.84-1.365s-.192-.945-.577-1.26c-.385-.28-1.085-.42-2.1-.42h-9.4c-.665 0-1.207.175-1.627.525a1.7 1.7 0 0 0-.578 1.313c0 .805.595 1.417 1.785 1.837 1.19.456 2.853.683 4.989.683zm.315-27.2c-1.155 0-2.1.333-2.836.998-.7.665-1.05 1.61-1.05 2.836 0 1.19.35 2.118 1.05 2.783.735.665 1.68.997 2.836.997 1.12 0 2.048-.332 2.783-.997s1.102-1.593 1.102-2.783c0-1.226-.367-2.17-1.102-2.836s-1.663-.998-2.783-.998zM97.483 8.56c-2.065-1.085-4.48-1.628-7.246-1.628-2.695 0-5.093.543-7.194 1.628-2.1 1.05-3.745 2.608-4.935 4.673-1.156 2.03-1.733 4.481-1.733 7.351s.577 5.339 1.733 7.404a11.983 11.983 0 0 0 4.935 4.673c2.1 1.05 4.499 1.576 7.194 1.576 2.766 0 5.181-.525 7.246-1.576 2.1-1.085 3.728-2.642 4.884-4.673 1.19-2.065 1.785-4.533 1.785-7.404 0-2.87-.595-5.32-1.785-7.35-1.156-2.066-2.783-3.624-4.884-4.674zm-9.871 5.46c.735-.49 1.61-.734 2.625-.734 1.05 0 1.943.245 2.678.735.735.49 1.295 1.278 1.68 2.363s.578 2.485.578 4.2-.193 3.116-.578 4.201c-.385 1.05-.945 1.838-1.68 2.363-.735.49-1.628.735-2.678.735-1.015 0-1.89-.245-2.625-.735-.735-.525-1.295-1.313-1.68-2.363-.386-1.085-.578-2.485-.578-4.2s.192-3.116.577-4.201.945-1.873 1.68-2.363z" clip-rule="evenodd"/>
  </g>
  <path fill="#82c91e" d="M188 29c1.487 0 2.692.462 3.615 1.385S193 32.513 193 34s-.462 2.692-1.385 3.615S189.487 39 188 39s-2.692-.462-3.615-1.385S183 35.487 183 34s.462-2.692 1.385-3.615S186.513 29 188 29z"/>
</svg>
