<svg xmlns="http://www.w3.org/2000/svg" width="48" height="48" viewBox="0 0 64 64">
  <path fill="#f7a1c8" d="M5.559 22.837C.505 37.441 8.247 53.378 22.852 58.432s30.542-2.687 35.596-17.292S55.76 10.599 41.156 5.545 10.614 8.232 5.559 22.837z"/>
  <path fill="#ed7899" d="M48.246 48.245c-8.978 8.975-23.532 8.973-32.507-.005s-8.972-23.532.006-32.507 23.532-8.973 32.507.005a22.985 22.985 0 0 1-.006 32.507z"/>
  <path fill="#8d6c9f" d="M58.064 19.323C51.069 4.926 33.728-1.074 19.33 5.92A28.978 28.978 0 0 0 4.607 22.511C-.637 37.637 7.374 54.15 22.501 59.393s31.639-2.768 36.883-17.894a28.793 28.793 0 0 0-1.32-22.176zm-.569 21.487c-4.881 14.08-20.252 21.538-34.333 16.658S1.623 37.217 6.503 23.136 26.755 1.597 40.836 6.478A26.985 26.985 0 0 1 57.495 40.81z"/>
  <path fill="#8d6c9f" d="M46.126 46.125a1 1 0 0 0 0 1.413l1.413 1.413a1 1 0 0 0 1.413-1.413l-1.413-1.413a1 1 0 0 0-1.413 0zM50.423 41.941a.999.999 0 0 0-.996 1.731l1.731.996a1.005 1.005 0 0 0 .996-1.746l-1.731-.981zM37.837 50.909a.999.999 0 0 0-.708 1.223l.002.007.516 1.929a.999.999 0 0 0 1.929-.516l-.516-1.929a1 1 0 0 0-1.219-.715l-.004.001zM52.14 37.129a1 1 0 0 0-.516 1.929l1.929.516a1 1 0 0 0 .516-1.929l-1.929-.516zM42.296 49.065a1 1 0 0 0-.36 1.364l.989 1.724a.999.999 0 1 0 1.765-.937l-.034-.059-.996-1.731a1 1 0 0 0-1.364-.361zM31.59 10.29a.999.999 0 0 0 .049-1.971c-.835-.012-1.67.021-2.502.099a.998.998 0 1 0 .191 1.985 21.111 21.111 0 0 1 2.262-.113zM11.45 24.423a21.068 21.068 0 0 1 13.78-13.229 1 1 0 1 0-.573-1.915A23.065 23.065 0 0 0 9.598 23.731a.999.999 0 1 0 1.886.657l-.034.035z"/>
  <path fill="#fff8ee" d="M42.009 23.207a1.988 1.988 0 0 0-.408-.81L30.334 33.781l1.455 1.431 8.461-8.582c.025-.024 1.849-1.824 1.759-3.423zM31.084 35.499l-1.363-1.34-1.758 1.82zM31.706 36.111l-4.546.699-8.332 8.624 3.497 3.438.175.003-.875-3.625s4.82-2.189 11.267-7.974l-1.186-1.165zM18.342 45.937l-2.717 2.813 5.684.103zM40.743 27.126l-8.455 8.576 1.123 1.104c.114-.104.224-.2.338-.306 6.093-5.65 7.374-8.06 8.022-10.623a8.87 8.87 0 0 1-1.028 1.249zM29.835 33.29l11.21-11.328c-.875-.462-2.224-.403-3.795.163-3.125 1.125-6.875 5.25-6.875 5.25l-3.008 3.489 2.468 2.426zM26.909 31.395l-2.784 3.23 5.104-.95z"/>
  <g fill="#fff8ee">
    <path d="M43.499 19.743a.348.348 0 0 1 .018-.504l4.018-3.599a4.27 4.27 0 0 0-2.597-.89 4.313 4.313 0 0 0 0 8.626c.614 0 1.195-.132 1.724-.364l-3.163-3.269z"/>
    <path d="m44.254 19.518 3.045 3.147a4.289 4.289 0 0 0 .763-6.56l-3.808 3.413zm3.934.889a.348.348 0 0 1-.469.156.35.35 0 0 1-.156-.47c.409-.817.135-1.415.124-1.44a.352.352 0 0 1 .162-.466.348.348 0 0 1 .465.156c.018.037.446.92-.126 2.064z"/>
  </g>
</svg>
