<svg xmlns="http://www.w3.org/2000/svg" width="48" height="48">
  <path fill="#b71c1c" d="M45 29.316c0-.637-1.686-1.153-3.769-1.153-1.812 0-3.32.391-3.683.911l-10.759-5.083a4.53 4.53 0 0 0-3.918.014l-11.454 5.511a21.469 21.469 0 0 0-3.032-.201C5.408 29.316 3 29.832 3 30.469v3.46c0 .033.033.064.045.096-.146.555.07 1.205.649 1.478l16.922 7.994a5.196 5.196 0 0 0 4.496-.016l19.327-9.299c.484-.233.651-.786.509-1.247.023-.053.052-.105.052-.16v-3.459z"/>
  <path fill="#e53935" d="M20.616 39.158 3.694 31.592c-.922-.412-.926-1.727-.007-2.146l19.184-8.736a4.76 4.76 0 0 1 3.918-.014l17.644 7.889c.754.337.758 1.414.006 1.756l-19.327 8.801a5.465 5.465 0 0 1-4.496.016z"/>
  <path fill="#b71c1c" d="M45 21.675c0-.637-1.686-1.153-3.769-1.153-1.812 0-3.32.391-3.683.911L26.789 16.35a4.53 4.53 0 0 0-3.918.014l-11.454 5.511a21.469 21.469 0 0 0-3.032-.201C5.408 21.675 3 22.192 3 22.829v3.46c0 .033.033.064.045.096-.146.555.07 1.205.649 1.478l16.922 7.994a5.196 5.196 0 0 0 4.496-.016l19.327-9.299c.484-.233.651-.786.509-1.247.023-.053.052-.105.052-.16v-3.46z"/>
  <path fill="#e53935" d="M20.616 31.517 3.694 23.951c-.922-.412-.926-1.727-.007-2.146l19.184-8.736a4.76 4.76 0 0 1 3.918-.014l17.644 7.889c.754.337.758 1.414.006 1.756l-19.327 8.801a5.457 5.457 0 0 1-4.496.016z"/>
  <path fill="#b71c1c" d="M45 14.035c0-.637-1.686-1.153-3.769-1.153-1.812 0-3.32.391-3.683.911L26.789 8.71a4.53 4.53 0 0 0-3.918.014l-11.454 5.511a21.469 21.469 0 0 0-3.032-.201C5.408 14.035 3 14.551 3 15.188v3.46c0 .033.033.064.045.096-.146.555.07 1.205.649 1.478l16.922 7.994a5.196 5.196 0 0 0 4.496-.016l19.327-9.299c.484-.233.651-.786.509-1.247.023-.053.052-.105.052-.16v-3.459z"/>
  <path fill="#e53935" d="M20.616 23.877 3.694 16.311c-.922-.412-.926-1.727-.007-2.146l19.184-8.736a4.76 4.76 0 0 1 3.918-.014l17.644 7.889c.754.337.758 1.414.006 1.756l-19.327 8.801a5.461 5.461 0 0 1-4.496.016z"/>
  <path fill="#fff" d="M18.748 14.741c-.002 1.042-2.762 2.057-5.093 2.086-2.419.03-5.273-.993-5.282-2.051-.009-1.061 2.842-2.161 5.311-2.135 2.333.024 5.067 1.062 5.064 2.1zM17.038 18.471l7.178 3.067 3.162-4.68-10.34 1.613zM21.86 9.775l-3.304 1.202 4.522.395 1.439 2.387.885-2.166 3.858-.3-2.991-1.259.762-1.825-2.909.87-3.21-1.265.948 1.961z"/>
  <path fill="#b71c1c" d="m27.267 14.619 6.814-2.719 5.886 2.502-6.605 2.629c-2.031-.805-4.063-1.608-6.095-2.412z"/>
  <path fill="#a01c1c" d="m34.082 11.963-.015 4.787 5.901-2.348-5.886-2.439z"/>
</svg>
