<svg xmlns="http://www.w3.org/2000/svg" width="48" height="58" fill="none">
  <g fill="#E8F2FF" clip-path="url(#a)" filter="url(#b)">
    <path fill-rule="evenodd" d="M40.693 41.379c.379 5.274.379 7.746.379 10.445h-11.26c0-.588.009-1.126.019-1.671.03-1.695.062-3.463-.192-7.032-.335-5.227-2.411-6.388-6.23-6.388H5.7v-9.508h18.246c4.823 0 7.235-1.59 7.235-5.8 0-3.701-2.412-5.945-7.235-5.945H5.7V6.176h20.256c10.92 0 16.345 5.59 16.345 14.517 0 6.677-3.818 11.032-8.976 11.758 4.354.944 6.9 3.629 7.369 8.928Z" clip-rule="evenodd"/>
    <path d="M5.7 51.823v-7.088h11.905c1.99 0 2.421 1.599 2.421 2.552v4.536H5.699Z"/>
  </g>
  <defs>
    <clipPath id="a">
      <path fill="#fff" d="M0 0h48v58H0z"/>
    </clipPath>
    <filter id="b" width="164.602" height="173.647" x="-58.301" y="-57.824" color-interpolation-filters="sRGB" filterUnits="userSpaceOnUse">
      <feFlood flood-opacity="0" result="BackgroundImageFix"/>
      <feColorMatrix in="SourceAlpha" result="hardAlpha" values="0 0 0 0 0 0 0 0 0 0 0 0 0 0 0 0 0 0 127 0"/>
      <feOffset/>
      <feGaussianBlur stdDeviation="32"/>
      <feComposite in2="hardAlpha" operator="out"/>
      <feColorMatrix values="0 0 0 0 0.223529 0 0 0 0 0.572549 0 0 0 0 1 0 0 0 0.9 0"/>
      <feBlend in2="BackgroundImageFix" result="effect1_dropShadow_73_2"/>
      <feBlend in="SourceGraphic" in2="effect1_dropShadow_73_2" result="shape"/>
      <feColorMatrix in="SourceAlpha" result="hardAlpha" values="0 0 0 0 0 0 0 0 0 0 0 0 0 0 0 0 0 0 127 0"/>
      <feOffset/>
      <feGaussianBlur stdDeviation="28"/>
      <feComposite in2="hardAlpha" k2="-1" k3="1" operator="arithmetic"/>
      <feColorMatrix values="0 0 0 0 0.223529 0 0 0 0 0.572549 0 0 0 0 1 0 0 0 1 0"/>
      <feBlend in2="shape" result="effect2_innerShadow_73_2"/>
    </filter>
  </defs>
</svg>
