<svg xmlns="http://www.w3.org/2000/svg" xml:space="preserve" baseProfile="basic" viewBox="0 0 64 64">
  <linearGradient id="a" x1="32.066" x2="32.066" y1="5.133" y2="59" gradientUnits="userSpaceOnUse">
    <stop offset="0" style="stop-color:#6dc7ff"/>
    <stop offset="1" style="stop-color:#e6abff"/>
  </linearGradient>
  <path d="M56.528 32.066 59 29.414l-2.942-2.12 1.907-3.084-3.299-1.505 1.269-3.397-3.529-.832.582-3.579-3.624-.128-.128-3.624-3.579.582-.832-3.529-3.397 1.269-1.505-3.299-3.084 1.907-2.12-2.942-2.653 2.472-2.653-2.472-2.12 2.942-3.083-1.907-1.505 3.299-3.397-1.269-.832 3.529-3.579-.582-.128 3.624-3.624.128.582 3.579-3.529.832 1.269 3.397-3.299 1.505 1.907 3.084-2.942 2.12 2.472 2.653-2.472 2.653 2.942 2.12-1.907 3.084 3.299 1.505-1.269 3.397 3.529.832-.582 3.579 3.624.128.128 3.624 3.579-.582.832 3.529 3.397-1.269 1.505 3.299 3.084-1.907L29.414 59l2.653-2.472L34.719 59l2.12-2.942 3.084 1.907 1.505-3.299 3.397 1.269.832-3.529 3.579.582.128-3.624 3.624-.128-.582-3.579 3.529-.832-1.269-3.397 3.299-1.505-1.907-3.084L59 34.719l-2.472-2.653zM32 10a1 1 0 1 1 0 2 1 1 0 0 1 0-2zM12 25a1 1 0 1 1 0 2 1 1 0 0 1 0-2zm.21 14A20.828 20.828 0 0 1 11 32c0-.856.066-1.695.166-2.524l2.947-1.001a1.935 1.935 0 0 0 1.21-2.455L14.637 24H18v15h-5.79zM21 51a1 1 0 1 1 0-2 1 1 0 0 1 0 2zm22 0a1 1 0 1 1 0-2 1 1 0 0 1 0 2zm3.262-3.617-3.749-.599a1.934 1.934 0 0 0-2.216 1.606l-.494 3.096A20.914 20.914 0 0 1 32 53c-2.755 0-5.379-.545-7.79-1.51l-.495-3.1a1.936 1.936 0 0 0-2.216-1.606l-3.759.6a21.27 21.27 0 0 1-2.947-3.385H32v-5h-5v-5h6.166c5.219 1.25.755 10 9.834 10h6.207a21.208 21.208 0 0 1-2.945 3.384zM27 29v-4h7a2 2 0 1 1 0 4h-7zm25.9 5H50v1.66c0 1.845-1.155 3.34-3 3.34-4 0-.401-7.47-9-8 3.314 0 7-2.686 7-6s-3.686-6-7-6H15.536c3.057-3.87 7.437-6.64 12.471-7.61l2.691 2.691a1.935 1.935 0 0 0 2.737 0l2.674-2.674c6.246 1.239 11.493 5.247 14.41 10.693l-1.811 3.204a1.935 1.935 0 0 0 .733 2.637l3.453 1.952c.069.693.106 1.396.106 2.107 0 .675-.037 1.341-.1 2zm-.9-7a1 1 0 1 1 0-2 1 1 0 0 1 0 2z" style="fill:url(#a)"/>
  <linearGradient id="b" x1="32.066" x2="32.066" y1="60" y2="4.133" gradientUnits="userSpaceOnUse">
    <stop offset="0" style="stop-color:#c822ff"/>
    <stop offset="1" style="stop-color:#1a6dff"/>
  </linearGradient>
  <path d="M29.413 60a1 1 0 0 1-.812-.416l-1.574-2.186-2.291 1.417a1 1 0 0 1-1.436-.436l-1.118-2.451-2.523.942a1.003 1.003 0 0 1-1.323-.707l-.618-2.622-2.659.433a1.001 1.001 0 0 1-1.159-.952l-.096-2.692-2.692-.096a1.002 1.002 0 0 1-.952-1.159l.433-2.659-2.622-.618a1 1 0 0 1-.707-1.323l.942-2.523-2.451-1.118a1 1 0 0 1-.436-1.435l1.416-2.292-2.187-1.577a1.003 1.003 0 0 1-.146-1.493l1.836-1.971-1.836-1.971a1 1 0 0 1 .146-1.493l2.186-1.575-1.416-2.292a1 1 0 0 1 .436-1.435l2.451-1.118-.942-2.523a1 1 0 0 1 .707-1.323l2.622-.619-.433-2.659a1 1 0 0 1 .952-1.16l2.692-.095.096-2.692a1.002 1.002 0 0 1 1.159-.952l2.659.432.618-2.622a1 1 0 0 1 1.323-.707l2.523.942L23.3 5.752a1.002 1.002 0 0 1 1.436-.436l2.291 1.417 1.574-2.186a.997.997 0 0 1 1.493-.148l1.972 1.837L34.037 4.4a1.003 1.003 0 0 1 1.493.147l1.575 2.186 2.291-1.417a.998.998 0 0 1 1.436.436l1.118 2.451 2.523-.942a1 1 0 0 1 1.323.707l.618 2.622 2.659-.432a.998.998 0 0 1 1.159.952l.096 2.692 2.692.095a1 1 0 0 1 .952 1.16l-.433 2.659 2.622.619a.998.998 0 0 1 .707 1.323l-.942 2.523L58.38 23.3a1 1 0 0 1 .436 1.436l-1.417 2.292 2.187 1.575a1.003 1.003 0 0 1 .146 1.493l-1.836 1.971 1.836 1.971a.999.999 0 0 1-.146 1.493l-2.187 1.575 1.417 2.291a1 1 0 0 1-.436 1.436l-2.451 1.118.942 2.523a1.003 1.003 0 0 1-.707 1.323l-2.622.618.433 2.659a1 1 0 0 1-.952 1.159l-2.693.097-.096 2.692a1.002 1.002 0 0 1-1.159.952l-2.659-.433-.618 2.622a1 1 0 0 1-1.323.707l-2.523-.942-1.118 2.451a1 1 0 0 1-1.436.436l-2.291-1.417-1.575 2.187a1.003 1.003 0 0 1-1.493.146l-1.971-1.836-1.972 1.836a1.002 1.002 0 0 1-.683.269zm-2.12-4.942c.312 0 .618.146.812.416l1.456 2.021 1.823-1.698a1.001 1.001 0 0 1 1.363 0l1.822 1.698 1.457-2.022a1.002 1.002 0 0 1 1.338-.266l2.119 1.311 1.033-2.267a.997.997 0 0 1 1.26-.521l2.334.871.571-2.425a1.003 1.003 0 0 1 1.134-.758l2.46.4.088-2.49a1 1 0 0 1 .964-.964l2.49-.088-.4-2.46a1.001 1.001 0 0 1 .758-1.134l2.425-.571-.871-2.334a1 1 0 0 1 .521-1.26l2.267-1.033-1.311-2.119a1 1 0 0 1 .266-1.338l2.022-1.457-1.698-1.822a1 1 0 0 1 0-1.363l1.698-1.823-2.022-1.457a1 1 0 0 1-.266-1.337l1.311-2.119-2.267-1.034a1 1 0 0 1-.521-1.26l.871-2.333-2.425-.572a1.001 1.001 0 0 1-.758-1.134l.4-2.459-2.49-.088a1 1 0 0 1-.964-.964l-.088-2.49-2.46.399a1 1 0 0 1-1.134-.757l-.571-2.425-2.334.872a.997.997 0 0 1-1.26-.521l-1.034-2.267-2.118 1.311a1.001 1.001 0 0 1-1.338-.266L34.57 6.638l-1.822 1.698a1 1 0 0 1-1.363 0l-1.823-1.699-1.456 2.021c-.308.425-.89.542-1.338.266L24.65 7.613 23.616 9.88a.999.999 0 0 1-1.26.521l-2.334-.872-.571 2.425a1.001 1.001 0 0 1-1.134.757l-2.46-.399-.088 2.49a1 1 0 0 1-.964.964l-2.49.088.4 2.459a1.001 1.001 0 0 1-.758 1.134l-2.425.572.871 2.333a1 1 0 0 1-.521 1.26l-2.267 1.034 1.31 2.119a1 1 0 0 1-.266 1.337l-2.021 1.456 1.698 1.823a1 1 0 0 1 0 1.363L6.638 34.57l2.021 1.457a1 1 0 0 1 .266 1.337l-1.31 2.119 2.267 1.034a1 1 0 0 1 .521 1.26l-.871 2.334 2.425.571c.511.121.842.616.758 1.134l-.4 2.46 2.49.088a1 1 0 0 1 .964.964l.088 2.49 2.46-.4a1.004 1.004 0 0 1 1.134.758l.571 2.425 2.334-.871a1.001 1.001 0 0 1 1.26.521l1.033 2.267 2.119-1.311a.997.997 0 0 1 .525-.149z" style="fill:url(#b)"/>
</svg>
