<svg xmlns="http://www.w3.org/2000/svg" width="48" height="48">
  <path fill="#9575cd" d="M44.86 9.976 25.023 45.448a1.079 1.079 0 0 1-1.878.008L2.915 9.979c-.453-.794.226-1.756 1.126-1.595l19.859 3.55c.127.023.256.022.383-.001l19.443-3.544c.897-.164 1.579.791 1.134 1.587z"/>
  <path fill="#fbc02d" d="M33.574 3.01 19.019 5.862a.536.536 0 0 0-.431.493l-.895 15.121a.534.534 0 0 0 .654.552l4.052-.935a.535.535 0 0 1 .644.628l-1.204 5.895a.534.534 0 0 0 .679.618l2.503-.76a.535.535 0 0 1 .679.62l-1.913 9.26c-.12.579.651.895.972.398l.215-.332 11.86-23.669a.534.534 0 0 0-.579-.764l-4.171.805a.535.535 0 0 1-.615-.673l2.722-9.438a.534.534 0 0 0-.617-.671z"/>
</svg>
