<svg xmlns="http://www.w3.org/2000/svg" width="48" height="48">
  <path fill="#03a9f4" d="M44 38 6.6 43.9 2 13.8l37.2-5.7z"/>
  <path fill="#039be5" d="M39.2 8.1 44 38 6.6 43.9 6.2 41z"/>
  <path fill="#29b6f6" d="m2 13.8 2.4 15.5 17.8-18.6z"/>
  <path fill="#fff" d="m8.3 41.6-4-26.2 33.3-5.1 4.2 26-33.5 5.3zM6.6 17.1 10 39.3l29.5-4.7L36 12.5 6.6 17.1z"/>
  <path fill="#fff" d="m11.1 27 .4 3L36 26.1l-.5-3z"/>
  <path fill="#fff" d="M16.6 34.3 13.5 38l.4-4.8c0-.1 0-.2.1-.3l5.2-12.7c.2-.5.8-.8 1.3-.5l.9.4c.5.2.8.8.5 1.3L16.8 34c-.1.1-.1.2-.2.3zm14.1-5.1-9.3-10.9c-.4-.4-.3-1.1.1-1.4l.8-.6c.4-.4 1.1-.3 1.4.1L33 27.3l-2.3 1.9zm2.9-1.2s2.4.7 2.4 3.5c0 1.8-.5 2.5-.5 2.5s-.4-1.2-2.3-1.9c-2.6-.9-2.5-2.9-2.5-2.9l2.2-.5.7-.7z"/>
  <path fill="#03a9f4" d="m20.4 25-1.2 2.9 1.9-1.8.4-1.1z"/>
  <path fill="#039be5" d="m19.5 30 1.6-3.9-1.9 1.8-.8 2.1z"/>
  <path fill="#03a9f4" d="m15.2 30 2-5h-1.1l-2 5z"/>
  <path fill="#039be5" d="M33.9 26.8 30.6 23h-1.3l3.5 4 .2.3-2.3 1.9-1.3-1.5-3.2-3.7h-1.3l3 3.5 2 2.4.7.7.7-.6 2.3-2 .8-.6z"/>
  <path fill="#03a9f4" d="M17 20.9V22l5 2.1V23z"/>
  <path fill="#039be5" d="m18 33.6-3.1-1.3-.8.8 3.9 1.6z"/>
  <path fill="#03a9f4" d="M13 31.5v1.1l1.1.5.8-.8z"/>
  <path fill="#0277bd" d="M37.9 12.2v.1l.7 4.2 1.3-3.6c0-.1.1-.2.1-.3l-.4-2.3c-.8.5-1.5 1.3-1.7 1.9zm-4 20.2c-.2-.1-.4-.2-.7-.3-.5-.2-.8-.3-1.1-.5L30.8 36l2.2-.3.9-3.3zm-3.7 5.7-.5 2.2 2.1-.4.6-2.1zm4.6-16.3v.1l-.4 1.4 1.1-.2.4 2.2.8-2.9.5-1.6-.7-4.4-1.1 3.5z"/>
  <path fill="#90a4ae" d="m36.5 16.4.7 4.4 1.3-4.3-.7-4.2c-.5 1.4-1 2.8-1.1 3l-.2 1.1zM30.8 36l-.6 2.1 2.2-.3.6-2.1zm5.1-10.7-.4-2.2-1.1.2-.9 3.2 2.1-.3zM33.6 28l-.6.3-.9 3.3c.3.2.7.4 1.1.5.3.1.5.2.7.3l1-3.6c-.6-.6-1.3-.8-1.3-.8z"/>
  <path fill="#0277bd" d="m34.9 28.8.7-2.7-2.2.3-.6 2.2.8-.7c0 .1.7.3 1.3.9z"/>
  <path fill="#90a4ae" d="m33.6 28-.8.7-.8 2.9c.3.2.7.4 1.1.5.3.1.5.2.7.3l1-3.6c-.5-.6-1.2-.8-1.2-.8z"/>
  <path fill="#78909c" d="M36 4.5C30 4.5 26 6 26 6v.5c8.6 0 9.7 3.2 10 4v-6z"/>
  <path fill="#d7dee2" d="M44 6.3c-.2.4-.4.7-1 .7-1.1 0-2-1.6-2-1.6C39.3 4.3 36 3 33 3c-6 0-8 1.5-8 1.5V5c4.2 0 5.8.4 7.3 1.5 2.4 1.8 2.2 5.9 1.3 9.1L31.8 21l2.9.9 2.1-6.6c.1-.1.6-1.6 1.1-3.1.3-.8 1.1-1.8 2.1-2.1.6-.2 1.4-.3 1.9.1s.5.7.4 1.1l2 .6L46 7l-2-.7z"/>
  <path fill="#90a4ae" d="M43 7c-1.1 0-2-1.6-2-1.6l-.8 2.5c-.3 1.1-1.5 1.6-2.5 1.3l-4.3-1.4c.5.9.7 1.9.8 3.1l3.8 1.2c.3-.6.8-1.3 1.5-1.7l.6-.3c.6-.2 1.4-.3 1.9.1s.5.7.4 1.1l1.6-5c-.2.4-.4.7-1 .7z"/>
  <path fill="#424242" d="m31.8 21-8.7 20.3c-.5 1.3.2 2.9 1.6 3.3l.9.3c1.4.4 2.8-.4 3.1-1.4l6-21.6-2.9-.9z"/>
</svg>
