<svg xmlns="http://www.w3.org/2000/svg" xml:space="preserve" width="256" height="256">
  <g style="stroke:none;stroke-width:0;stroke-dasharray:none;stroke-linecap:butt;stroke-linejoin:miter;stroke-miterlimit:10;fill:none;fill-rule:nonzero;opacity:1">
    <path d="M30.091 10.131c5.28-13.046 23.695-13.207 29.202-.255 12.959-5.491 26.093 7.416 20.829 20.469 13.046 5.28 13.207 23.695.255 29.202 5.491 12.959-7.416 26.093-20.469 20.829-5.28 13.046-23.695 13.207-29.202.255-12.958 5.491-26.093-7.416-20.828-20.469C-3.169 54.881-3.33 36.467 9.623 30.96 4.131 18.001 17.038 4.866 30.091 10.131z" style="stroke:none;stroke-width:1;stroke-dasharray:none;stroke-linecap:butt;stroke-linejoin:miter;stroke-miterlimit:10;fill:#0096f1;fill-rule:nonzero;opacity:1" transform="matrix(2.81 0 0 2.81 1.407 1.407)"/>
    <path d="m39.66 63.79-16.3-16.03 5.61-5.71L39.3 52.21l20.3-22.63 5.96 5.35z" style="stroke:none;stroke-width:1;stroke-dasharray:none;stroke-linecap:butt;stroke-linejoin:miter;stroke-miterlimit:10;fill:#fff;fill-rule:nonzero;opacity:1" transform="matrix(2.81 0 0 2.81 1.407 1.407)"/>
  </g>
</svg>
