<svg xmlns="http://www.w3.org/2000/svg" width="110" height="87" fill="none">
  <path fill="#fff" d="M49.16.52h19.136v51.904c0 6.955-1.365 12.992-4.096 18.112-2.73 5.077-6.635 9.024-11.712 11.84-5.077 2.773-11.136 4.16-18.176 4.16-7.083 0-13.184-1.387-18.304-4.16-5.12-2.816-9.045-6.763-11.776-11.84C1.544 65.416.2 59.379.2 52.424V.52h19.072V51.4c0 3.84.597 7.083 1.792 9.728 1.237 2.645 2.987 4.65 5.248 6.016 2.261 1.323 4.928 1.984 8 1.984 3.03 0 5.653-.661 7.872-1.984 2.219-1.365 3.925-3.37 5.12-6.016 1.237-2.645 1.856-5.888 1.856-9.728V.52Zm59.996 58.496c0 5.76-1.088 10.71-3.264 14.848-2.133 4.096-5.205 7.232-9.216 9.408-3.968 2.176-8.661 3.264-14.08 3.264-3.925 0-7.339-.512-10.24-1.536-2.901-.981-5.205-2.048-6.912-3.2-1.707-1.195-2.752-2.09-3.136-2.688l7.168-16.576c.512.725 1.237 1.515 2.176 2.368.939.853 2.09 1.6 3.456 2.24 1.365.597 2.901.896 4.608.896 1.963 0 3.712-.405 5.248-1.216 1.536-.81 2.752-2.155 3.648-4.032.939-1.877 1.408-4.373 1.408-7.488V.52h19.136v58.496Z"/>
</svg>
